<svg id="add" xmlns="http://www.w3.org/2000/svg" viewBox="0 0 92 92">
  <defs>
    <style>
      .cls-1 {
        fill: #fff;
      }
    </style>
  </defs>
  <title>add</title>
  <g id="box">
    <rect class="cls-1" x="0.5" y="0.5" width="91" height="91" rx="11.5" ry="11.5"/>
    <path d="M84.75,5a11,11,0,0,1,11,11V84a11,11,0,0,1-11,11h-68a11,11,0,0,1-11-11V16a11,11,0,0,1,11-11h68m0-1h-68a12,12,0,0,0-12,12V84a12,12,0,0,0,12,12h68a12,12,0,0,0,12-12V16a12,12,0,0,0-12-12Z" transform="translate(-4.75 -4)"/>
  </g>
  <g>
    <polygon class="cls-1" points="42.75 69.5 42.75 47.5 20.75 47.5 20.75 40.5 42.75 40.5 42.75 18.5 49.75 18.5 49.75 40.5 71.75 40.5 71.75 47.5 49.75 47.5 49.75 69.5 42.75 69.5"/>
    <path d="M54,23V45H76v6H54V73H48V51H26V45H48V23h6m1-1H47V44H25v8H47V74h8V52H77V44H55V22Z" transform="translate(-4.75 -4)"/>
  </g>
  <g>
    <circle class="cls-1" cx="46.25" cy="44" r="2.5"/>
    <path d="M51,46a2,2,0,1,1-2,2,2,2,0,0,1,2-2m0-1a3,3,0,1,0,3,3,3,3,0,0,0-3-3Z" transform="translate(-4.75 -4)"/>
  </g>
</svg>
