<svg id="download" xmlns="http://www.w3.org/2000/svg" viewBox="0 0 92 92">
  <defs>
    <style>
      .cls-1 {
        fill: #fff;
      }

      .cls-2 {
        fill: none;
        stroke: #000;
        stroke-linejoin: round;
      }
    </style>
  </defs>
  <title>download</title>
  <g id="box">
    <rect class="cls-1" x="0.5" y="0.5" width="91" height="91" rx="11.5" ry="11.5"/>
    <path d="M84.75,5a11,11,0,0,1,11,11V84a11,11,0,0,1-11,11h-68a11,11,0,0,1-11-11V16a11,11,0,0,1,11-11h68m0-1h-68a12,12,0,0,0-12,12V84a12,12,0,0,0,12,12h68a12,12,0,0,0,12-12V16a12,12,0,0,0-12-12Z" transform="translate(-4.75 -4)"/>
  </g>
  <g>
    <rect class="cls-1" x="12.75" y="75.5" width="67" height="5" rx="1.34" ry="1.34"/>
    <path d="M83.16,80a.85.85,0,0,1,.84.84v2.32a.85.85,0,0,1-.84.84H18.84a.85.85,0,0,1-.84-.84V80.84a.85.85,0,0,1,.84-.84H83.16m0-1H18.84A1.85,1.85,0,0,0,17,80.84v2.32A1.85,1.85,0,0,0,18.84,85H83.16A1.85,1.85,0,0,0,85,83.16V80.84A1.85,1.85,0,0,0,83.16,79Z" transform="translate(-4.75 -4)"/>
  </g>
  <g>
    <path class="cls-1" d="M36.64,45H48a.5.5,0,0,0,.5-.5v-22h4v22a.5.5,0,0,0,.5.5H64.36L50.5,69Z" transform="translate(-4.75 -4)"/>
    <path d="M52,23V44.5a1,1,0,0,0,1,1H63.49L50.5,68l-13-22.5H48a1,1,0,0,0,1-1V23h3m1-1H48V44.5H35.78L50.5,70,65.22,44.5H53V22Z" transform="translate(-4.75 -4)"/>
  </g>
  <line class="cls-2" x1="35.75" y1="43.5" x2="44.75" y2="59.5"/>
</svg>
