<svg id="facetime" xmlns="http://www.w3.org/2000/svg" viewBox="0 0 92 92">
  <defs>
    <style>
      .cls-1 {
        fill: #fff;
      }

      .cls-2 {
        fill: none;
        stroke: #000;
        stroke-miterlimit: 10;
      }
    </style>
  </defs>
  <title>facetime</title>
  <g id="box">
    <rect class="cls-1" x="0.5" y="0.5" width="91" height="91" rx="11.5" ry="11.5"/>
    <path d="M83.75,5a11,11,0,0,1,11,11V84a11,11,0,0,1-11,11h-68a11,11,0,0,1-11-11V16a11,11,0,0,1,11-11h68m0-1h-68a12,12,0,0,0-12,12V84a12,12,0,0,0,12,12h68a12,12,0,0,0,12-12V16a12,12,0,0,0-12-12Z" transform="translate(-3.75 -4)"/>
  </g>
  <path d="M62,32V45l1.52-.93,16.24-9.9.63,26.24L63.48,51.21,62,50.4V64H12V32H62m1-1H11V65H63V52.08L81.43,62.14l-.71-29.69L63,43.25V31Z" transform="translate(-3.75 -4)"/>
  <polyline id="detailsFT" class="cls-2" points="9.75 37.5 9.75 29.5 15.75 29.5"/>
</svg>
