<svg id="play" xmlns="http://www.w3.org/2000/svg" viewBox="0 0 92 92">
  <defs>
    <style>
      .cls-1 {
        fill: #fff;
      }

      .cls-2 {
        fill: none;
        stroke: #000;
        stroke-linecap: round;
        stroke-linejoin: round;
      }
    </style>
  </defs>
  <title>icon</title>
  <g>
    <rect class="cls-1" x="0.5" y="0.5" width="91" height="91" rx="11.5" ry="11.5"/>
    <path d="M83.75,5a11,11,0,0,1,11,11V84a11,11,0,0,1-11,11h-68a11,11,0,0,1-11-11V16a11,11,0,0,1,11-11h68m0-1h-68a12,12,0,0,0-12,12V84a12,12,0,0,0,12,12h68a12,12,0,0,0,12-12V16a12,12,0,0,0-12-12Z" transform="translate(-3.75 -4)"/>
  </g>
  <line id="back" class="cls-2" x1="22.75" y1="21.5" x2="22.75" y2="69.5"/>
  <g>
    <path class="cls-1" d="M24.25,80a.52.52,0,0,1-.43-.24A.5.5,0,0,1,24,79L65.86,51.62a1.93,1.93,0,0,0,0-3.24L24,21a.5.5,0,0,1-.16-.68.51.51,0,0,1,.43-.23.54.54,0,0,1,.25.06l51,29.45a.49.49,0,0,1,0,.86l-51,29.45A.55.55,0,0,1,24.25,80Z" transform="translate(-3.75 -4)"/>
    <path d="M24.25,20.56,75.25,50l-51,29.44L66.14,52a2.45,2.45,0,0,0,0-4.08L24.25,20.56m0-1a1,1,0,0,0-.55,1.84L65.59,48.8a1.43,1.43,0,0,1,0,2.4L23.7,78.61A1,1,0,0,0,23.4,80a1,1,0,0,0,.85.47,1,1,0,0,0,.5-.13l51-29.44a1,1,0,0,0,0-1.74l-51-29.44a1,1,0,0,0-.5-.14Z" transform="translate(-3.75 -4)"/>
  </g>
  <line id="detailsPL" class="cls-2" x1="20.75" y1="16.5" x2="20.75" y2="75.5"/>
</svg>
