<svg id="mail" xmlns="http://www.w3.org/2000/svg" viewBox="0 0 92 92">
  <defs>
    <style>
      .cls-1, .cls-2 {
        fill: #fff;
      }

      .cls-2 {
        stroke: #000;
        stroke-miterlimit: 10;
      }
    </style>
  </defs>
  <title>mail</title>
  <g id="box">
    <rect class="cls-1" x="0.5" y="0.5" width="91" height="91" rx="11.5" ry="11.5"/>
    <path d="M83.75,5a11,11,0,0,1,11,11V84a11,11,0,0,1-11,11h-68a11,11,0,0,1-11-11V16a11,11,0,0,1,11-11h68m0-1h-68a12,12,0,0,0-12,12V84a12,12,0,0,0,12,12h68a12,12,0,0,0,12-12V16a12,12,0,0,0-12-12Z" transform="translate(-3.75 -4)"/>
  </g>
  <path id="mail-2" data-name="mail" class="cls-2" d="M15,34V66H85V34ZM49.53,49,17.8,35H82.2Z" transform="translate(-3.75 -4)"/>
  <polygon id="detailsML" class="cls-2" points="20.75 39.43 22.53 43.05 26.52 43.63 23.64 46.44 24.32 50.41 20.75 48.53 17.18 50.41 17.86 46.44 14.98 43.63 18.97 43.05 20.75 39.43"/>
</svg>
