<svg id="menu" xmlns="http://www.w3.org/2000/svg" viewBox="0 0 92 92">
  <defs>
    <style>
      .cls-1 {
        fill: #fff;
      }

      .cls-2 {
        fill: none;
        stroke: #000;
        stroke-linecap: round;
        stroke-miterlimit: 10;
      }
    </style>
  </defs>
  <title>menu</title>
  <g id="box">
    <rect class="cls-1" x="0.5" y="0.5" width="91" height="91" rx="11.5" ry="11.5"/>
    <path d="M83.75,5a11,11,0,0,1,11,11V84a11,11,0,0,1-11,11h-68a11,11,0,0,1-11-11V16a11,11,0,0,1,11-11h68m0-1h-68a12,12,0,0,0-12,12V84a12,12,0,0,0,12,12h68a12,12,0,0,0,12-12V16a12,12,0,0,0-12-12Z" transform="translate(-3.75 -4)"/>
  </g>
  <g>
    <circle class="cls-1" cx="46.25" cy="46" r="7.5"/>
    <path d="M50,43a7,7,0,1,1-7,7,7,7,0,0,1,7-7m0-1a8,8,0,1,0,8,8,8,8,0,0,0-8-8Z" transform="translate(-3.75 -4)"/>
  </g>
  <g>
    <circle class="cls-1" cx="25.25" cy="46" r="7.5"/>
    <path d="M29,43a7,7,0,1,1-7,7,7,7,0,0,1,7-7m0-1a8,8,0,1,0,8,8,8,8,0,0,0-8-8Z" transform="translate(-3.75 -4)"/>
  </g>
  <g>
    <circle class="cls-1" cx="67.25" cy="46" r="7.5"/>
    <path d="M71,43a7,7,0,1,1-7,7,7,7,0,0,1,7-7m0-1a8,8,0,1,0,8,8,8,8,0,0,0-8-8Z" transform="translate(-3.75 -4)"/>
  </g>
  <line class="cls-2" x1="16.75" y1="57.5" x2="74.75" y2="57.5"/>
</svg>
