<svg id="search" xmlns="http://www.w3.org/2000/svg" viewBox="0 0 92 92">
  <defs>
    <style>
      .cls-1, .cls-2 {
        fill: #fff;
      }

      .cls-2 {
        stroke: #000;
        stroke-linecap: round;
        stroke-miterlimit: 10;
      }
    </style>
  </defs>
  <title>search</title>
  <g id="box">
    <rect class="cls-1" x="0.5" y="0.5" width="91" height="91" rx="11.5" ry="11.5"/>
    <path d="M83.75,5a11,11,0,0,1,11,11V84a11,11,0,0,1-11,11h-68a11,11,0,0,1-11-11V16a11,11,0,0,1,11-11h68m0-1h-68a12,12,0,0,0-12,12V84a12,12,0,0,0,12,12h68a12,12,0,0,0,12-12V16a12,12,0,0,0-12-12Z" transform="translate(-3.75 -4)"/>
  </g>
  <g>
    <path class="cls-1" d="M34.37,80.57a1.52,1.52,0,0,1-.59-.12L32,79.71a1.55,1.55,0,0,1-.83-2L41.75,52.28a1.39,1.39,0,0,1,.34-.51l.46-.45L42,51a17.48,17.48,0,1,1,9,2.51,17.65,17.65,0,0,1-3.91-.45l-.63-.15,0,.65a1.56,1.56,0,0,1-.11.65L35.8,79.62A1.54,1.54,0,0,1,34.37,80.57Z" transform="translate(-3.75 -4)"/>
    <path d="M51,19a17,17,0,0,1,0,34,17.33,17.33,0,0,1-3.8-.44l-1.26-.29,0,1.3a1,1,0,0,1-.07.43L35.34,79.43A1,1,0,0,1,34,80l-1.77-.74a1,1,0,0,1-.57-1.36L42.21,52.47a1,1,0,0,1,.23-.34l.92-.91-1.1-.66A17,17,0,0,1,51,19m0-1a18,18,0,0,0-9.26,33.41,2.08,2.08,0,0,0-.45.67L30.72,77.51a2,2,0,0,0,1.1,2.67l1.77.73a2,2,0,0,0,.78.16,2,2,0,0,0,1.89-1.26L46.83,54.39a2,2,0,0,0,.15-.86A17.76,17.76,0,0,0,51,54a18,18,0,0,0,0-36Z" transform="translate(-3.75 -4)"/>
  </g>
  <path id="detailsSR" class="cls-2" d="M44.5,53.5c-7,17-10,25-10,25" transform="translate(-3.75 -4)"/>
</svg>
